<?xml version="1.0" encoding="utf-8"?>
<!-- Generator: Adobe Illustrator 25.2.3, SVG Export Plug-In . SVG Version: 6.00 Build 0)  -->
<svg version="1.1" id="Calque_1" xmlns="http://www.w3.org/2000/svg" xmlns:xlink="http://www.w3.org/1999/xlink" x="0px" y="0px"
	 viewBox="0 0 691.1 265.8" style="enable-background:new 0 0 691.1 265.8;" xml:space="preserve">
<style type="text/css">
	.st0{fill:#FFC500;}
</style>
<g>
	<path d="M159.1,199.8c-0.4,32.7-19.6,54.8-52.3,62.5c-10.6,2.5-21.7,3.4-32.7,3.4H6.4C3,266.1,0,263.6,0,260.6c0-0.4,0-0.9,0-1.3
		V140.7c-0.4-3.4,2.1-6.4,5.1-6.4c0.4,0,0.8,0,1.3,0h69.3c10.2,0,20,0.9,29.8,2.5C138.2,144.5,158.6,167.1,159.1,199.8"/>
	<path class="st0" d="M6.9,119.9c-3.4,0.4-6.4-2.1-6.8-5.1c0-0.4,0-0.9,0-1.3V6.8C-0.4,3.4,2.2,0.4,5.6,0C6,0,6.4,0,6.9,0H66
		c9.4,0,18.7,0.9,27.6,2.6c30.6,6.8,49.3,27.2,49.7,57.4c-0.4,30.2-18.7,50.2-48.9,57.4c-9.8,1.7-20,3-29.8,2.5L6.9,119.9"/>
	<g>
		<path d="M240.5,179.1v8.1h-35.7v-7.1l23.5-33.2h-22.4v-8.1H240v7.1l-23.5,33.2H240.5z"/>
		<path d="M274.2,156.1c2.9,2.8,4.3,7.4,4.3,13.8c0,6.4-1.4,11-4.3,13.8c-2.8,2.8-7.1,4.2-12.9,4.2c-5.7,0-10-1.4-12.9-4.2
			c-2.8-2.8-4.3-7.4-4.3-13.8c0-6.4,1.4-11,4.3-13.8c2.9-2.8,7.1-4.2,12.8-4.2C267,151.9,271.3,153.3,274.2,156.1z M253.8,170
			c0,4,0.6,6.9,1.7,8.7c1.1,1.8,3.1,2.6,5.9,2.6c2.8,0,4.8-0.9,5.9-2.6c1.1-1.8,1.7-4.7,1.7-8.7c0-4.1-0.6-7-1.7-8.8
			c-1.1-1.8-3.1-2.6-5.9-2.6s-4.8,0.9-5.9,2.6C254.4,163,253.8,165.9,253.8,170z"/>
		<path d="M315.9,187.2h-9.4v-22.4c0-3.7-1.9-5.5-5.6-5.5c-2,0-3.7,0.6-5.2,1.7c-1.5,1.1-2.2,2.3-2.2,3.6v22.6h-9.3v-34.5h7.7
			l0.8,3.9c3.2-3.1,7-4.6,11.4-4.6c7.8,0,11.8,3.4,11.8,10.3L315.9,187.2L315.9,187.2z"/>
		<path d="M339.1,187.9c-5.9,0-10.3-1.5-13.3-4.4c-2.9-2.9-4.4-7.5-4.4-13.8c0-5.7,1.4-10.1,4.2-13.2c2.8-3.1,7-4.7,12.7-4.7
			c10.7,0,16.1,5.1,16.1,15.3v1.7c0,1.4,0,2.5-0.1,3.4h-23.3c0.2,5.8,3.1,8.7,8.7,8.7c4.2,0,7.2-1.4,9.2-4.3l5.4,4.8
			C351.2,185.8,346.1,187.9,339.1,187.9z M345.2,166.5v-1c0-4.8-2.3-7.2-6.9-7.2c-4.7,0-7.1,2.7-7.4,8.2L345.2,166.5L345.2,166.5z"
			/>
		<path d="M395.3,187.2h-19.7v-48.4h20.4c9.6,0,14.4,4.1,14.4,12.3c0,4.8-2.1,8.2-6.3,10.2c5.3,1.7,7.9,5.5,7.9,11.5
			c0,5-1.4,8.6-4.2,10.9C405,186,400.9,187.2,395.3,187.2z M393.7,146.1h-8.4v12.5h8.2c4.7,0,7-2.2,7-6.5c0-2-0.5-3.5-1.6-4.5
			C397.8,146.7,396.1,146.1,393.7,146.1z M393.6,165.6h-8.3v14.2h8.5c3,0,5.1-0.6,6.4-1.8c1.3-1.2,1.9-2.9,1.9-5.3
			c0-2.5-0.7-4.3-2-5.4C398.8,166.2,396.6,165.6,393.6,165.6z"/>
		<path d="M418.1,137.4h9.3v49.8h-9.3V137.4z"/>
		<path d="M450.7,187.9c-5.9,0-10.3-1.5-13.3-4.4c-2.9-2.9-4.4-7.5-4.4-13.8c0-5.7,1.4-10.1,4.2-13.2c2.8-3.1,7-4.7,12.7-4.7
			c10.7,0,16.1,5.1,16.1,15.3v1.7c0,1.4,0,2.5-0.1,3.4h-23.3c0.2,5.8,3.1,8.7,8.7,8.7c4.2,0,7.2-1.4,9.2-4.3l5.4,4.8
			C462.8,185.8,457.8,187.9,450.7,187.9z M456.8,166.5v-1c0-4.8-2.3-7.2-6.9-7.2c-4.7,0-7.1,2.7-7.4,8.2L456.8,166.5L456.8,166.5z"
			/>
		<path d="M504.3,187.2H496l-1.2-3.9c-2.8,3.1-6.5,4.7-10.9,4.7c-8.1,0-12.1-3.7-12.1-11.2v-24.1h9.4v23.2c0,3.4,1.9,5.1,5.6,5.1
			c2.1,0,3.8-0.5,5.2-1.6c1.3-1.1,2-2.3,2-3.8v-22.9h9.3v27.5L504.3,187.2z"/>
		<path d="M526.5,187.9c-5.9,0-10.3-1.5-13.3-4.4c-2.9-2.9-4.4-7.5-4.4-13.8c0-5.7,1.4-10.1,4.2-13.2c2.8-3.1,7-4.7,12.7-4.7
			c10.7,0,16.1,5.1,16.1,15.3v1.7c0,1.4,0,2.5-0.1,3.4h-23.3c0.2,5.8,3.1,8.7,8.7,8.7c4.2,0,7.2-1.4,9.2-4.3l5.4,4.8
			C538.6,185.8,533.6,187.9,526.5,187.9z M532.6,166.5v-1c0-4.8-2.3-7.2-6.9-7.2c-4.7,0-7.1,2.7-7.4,8.2L532.6,166.5L532.6,166.5z"
			/>
		<path d="M579.3,187.2H563v-48.4h16c7.7,0,13.3,1.7,17,5.2c3.7,3.5,5.5,9.6,5.5,18.4c0,8.8-1.7,15.1-5.2,19
			C592.9,185.2,587.2,187.2,579.3,187.2z M579.5,146.5h-6.6v33h7c4.2,0,7.2-1.3,8.9-4c1.7-2.6,2.6-7,2.6-13.2
			c0-5.6-0.9-9.6-2.8-12.1C586.8,147.7,583.7,146.5,579.5,146.5z"/>
		<path d="M625.1,187.2h-16.2v-48.4h16c7.7,0,13.3,1.7,17,5.2c3.7,3.5,5.5,9.6,5.5,18.4c0,8.8-1.7,15.1-5.2,19
			C638.8,185.2,633,187.2,625.1,187.2z M625.3,146.5h-6.6v33h7c4.2,0,7.2-1.3,8.9-4c1.7-2.6,2.6-7,2.6-13.2c0-5.6-0.9-9.6-2.8-12.1
			C632.6,147.7,629.6,146.5,625.3,146.5z"/>
		<path d="M674.4,187.2h-19.7v-48.4h20.4c9.6,0,14.4,4.1,14.4,12.3c0,4.8-2.1,8.2-6.3,10.2c5.3,1.7,7.9,5.5,7.9,11.5
			c0,5-1.4,8.6-4.2,10.9C684.1,186,679.9,187.2,674.4,187.2z M672.8,146.1h-8.4v12.5h8.2c4.7,0,7-2.2,7-6.5c0-2-0.5-3.5-1.6-4.5
			C676.9,146.7,675.2,146.1,672.8,146.1z M672.7,165.6h-8.3v14.2h8.5c3,0,5.1-0.6,6.4-1.8c1.3-1.2,1.9-2.9,1.9-5.3
			c0-2.5-0.7-4.3-2-5.4C677.9,166.2,675.7,165.6,672.7,165.6z"/>
		<path d="M225.7,219.9c-3.8,0-6.5,1.3-8,4s-2.3,7-2.3,12.9c0,6.3,0.8,10.7,2.3,13.3c1.5,2.6,4.2,3.9,8.1,3.9c2.5,0,4.5-0.5,6-1.5
			c1.5-1,2.6-2.7,3.5-4.9l8.3,3.6c-2.2,7.3-8.1,10.9-17.8,10.9c-7.5,0-12.8-2-15.8-5.9c-3.1-3.9-4.6-10.3-4.6-19.2
			c0-8.4,1.6-14.7,4.8-18.8c3.2-4.1,8.3-6.1,15.3-6.1c10,0,16,3.8,18,11.3l-8.7,3.4C233.3,222.1,230.3,219.9,225.7,219.9z"/>
		<path d="M256,261.9c-3.8,0-6.5-0.8-8.2-2.4c-1.6-1.6-2.4-4.1-2.4-7.4c0-1.7,0.3-3.3,1-4.5c0.6-1.3,1.5-2.3,2.6-3.2
			c1.1-0.8,2.5-1.5,4.4-2.1c1.9-0.6,3.8-1,5.8-1.3c2-0.3,4.5-0.5,7.5-0.8v-1.6c0-3.9-2.2-5.9-6.5-5.9c-3.6,0-6.3,1.5-8.1,4.5
			l-6.4-4.1c2.8-4.9,7.8-7.3,15-7.3c5,0,8.7,1,11.2,3c2.5,2,3.8,5.1,3.8,9.4v14.1c0,1.1,0.2,1.9,0.5,2.4c0.4,0.5,1,0.7,1.9,0.7
			l1-0.1v5.7l-0.3,0.1c-0.2,0-0.4,0.1-0.8,0.1c-0.3,0-0.7,0.1-1.1,0.1c-0.4,0-0.9,0.1-1.4,0.1c-0.5,0-1,0.1-1.5,0.1
			c-2.1,0-3.6-0.4-4.6-1.2c-1-0.8-1.8-1.9-2.2-3.5C264.4,260.2,260.6,261.9,256,261.9z M254.7,251.4c0,1.5,0.3,2.5,1,3.2
			c0.7,0.6,1.8,1,3.4,1c2.7,0,4.6-0.7,5.8-2c1.2-1.3,1.8-2.9,1.8-4.7v-3.4c-1.4,0.1-2.5,0.2-3.3,0.3c-0.8,0.1-1.7,0.2-2.8,0.4
			c-1.1,0.2-1.9,0.4-2.5,0.7c-0.6,0.3-1.2,0.6-1.8,1c-0.6,0.4-1,0.9-1.2,1.5C254.8,249.8,254.7,250.6,254.7,251.4z"/>
		<path d="M310.8,251.5c0,7-4.9,10.5-14.6,10.5c-3.9,0-7.1-0.5-9.7-1.4c-2.5-0.9-4.6-2.6-6.1-5.1l6.3-4.5c2.1,2.8,5.2,4.2,9.4,4.2
			c4.1,0,6.1-1,6.1-2.9c0-1-0.6-1.8-1.7-2.4c-1.1-0.6-3.6-1.5-7.6-2.8c-4-1.2-6.8-2.6-8.5-4.2c-1.7-1.6-2.5-3.9-2.5-6.8
			c0-3.3,1.2-5.8,3.8-7.5c2.5-1.7,6-2.6,10.4-2.6c7.4,0,12.2,2.2,14.4,6.5l-6.4,4.2c-1.6-2.6-4.2-3.9-7.8-3.9c-3.9,0-5.8,1-5.8,2.9
			c0,1,0.6,1.8,1.7,2.4c1.1,0.6,3.6,1.5,7.3,2.6c4.2,1.2,7.1,2.6,8.8,4.1C309.9,246.2,310.8,248.4,310.8,251.5z"/>
		<path d="M324.7,261.9c-3.8,0-6.5-0.8-8.2-2.4c-1.6-1.6-2.4-4.1-2.4-7.4c0-1.7,0.3-3.3,1-4.5c0.6-1.3,1.5-2.3,2.6-3.2
			c1.1-0.8,2.5-1.5,4.4-2.1c1.9-0.6,3.8-1,5.8-1.3c2-0.3,4.5-0.5,7.5-0.8v-1.6c0-3.9-2.2-5.9-6.5-5.9c-3.6,0-6.3,1.5-8.1,4.5
			l-6.4-4.1c2.8-4.9,7.8-7.3,15-7.3c5,0,8.7,1,11.2,3c2.5,2,3.8,5.1,3.8,9.4v14.1c0,1.1,0.2,1.9,0.6,2.4c0.4,0.5,1,0.7,1.9,0.7
			l1-0.1v5.7l-0.3,0.1c-0.2,0-0.4,0.1-0.8,0.1c-0.3,0-0.7,0.1-1.1,0.1c-0.4,0-0.9,0.1-1.4,0.1c-0.5,0-1,0.1-1.5,0.1
			c-2.1,0-3.6-0.4-4.6-1.2c-1-0.8-1.8-1.9-2.2-3.5C333.1,260.2,329.3,261.9,324.7,261.9z M323.4,251.4c0,1.5,0.3,2.5,1,3.2
			c0.7,0.6,1.8,1,3.4,1c2.7,0,4.6-0.7,5.8-2c1.2-1.3,1.8-2.9,1.8-4.7v-3.4c-1.4,0.1-2.5,0.2-3.3,0.3c-0.8,0.1-1.7,0.2-2.8,0.4
			c-1.1,0.2-1.9,0.4-2.5,0.7c-0.6,0.3-1.2,0.6-1.8,1c-0.6,0.4-1,0.9-1.2,1.5C323.5,249.8,323.4,250.6,323.4,251.4z"/>
		<path d="M385.6,243.2c0,3.7-0.4,6.8-1.3,9.3c-0.9,2.5-2.1,4.5-3.8,5.8c-1.7,1.3-3.5,2.3-5.5,2.8c-2,0.5-4.3,0.8-7.1,0.8
			c-6.1,0-11.2-1.2-15.4-3.7v-46.8h9.3v18.7c3.3-2.8,6.9-4.1,10.7-4.1c4.4,0,7.7,1.4,9.8,4.1C384.5,232.8,385.6,237.2,385.6,243.2z
			 M376,243.4c0-3.8-0.5-6.5-1.6-8c-1.1-1.5-2.8-2.3-5.2-2.3c-1.9,0-3.6,0.6-5.1,1.7c-1.5,1.1-2.2,2.1-2.2,3.1v15.7
			c1.7,1.1,3.8,1.6,6.3,1.6c1.7,0,3.1-0.3,4.1-0.8s1.8-1.4,2.4-2.5c0.5-1.1,0.9-2.4,1-3.6C376,246.9,376,245.3,376,243.4z"/>
		<path d="M391.3,211.4h9.3v49.8h-9.3V211.4z"/>
		<path d="M416.6,261.9c-3.8,0-6.5-0.8-8.2-2.4c-1.6-1.6-2.4-4.1-2.4-7.4c0-1.7,0.3-3.3,1-4.5c0.6-1.3,1.5-2.3,2.6-3.2
			s2.5-1.5,4.4-2.1c1.9-0.6,3.8-1,5.8-1.3c2-0.3,4.5-0.5,7.5-0.8v-1.6c0-3.9-2.2-5.9-6.5-5.9c-3.6,0-6.3,1.5-8.1,4.5l-6.4-4.1
			c2.8-4.9,7.8-7.3,15-7.3c5,0,8.7,1,11.2,3c2.5,2,3.8,5.1,3.8,9.4v14.1c0,1.1,0.2,1.9,0.6,2.4c0.4,0.5,1,0.7,1.9,0.7l1-0.1v5.7
			l-0.3,0.1c-0.2,0-0.4,0.1-0.8,0.1c-0.3,0-0.7,0.1-1.1,0.1c-0.4,0-0.9,0.1-1.4,0.1c-0.5,0-1,0.1-1.5,0.1c-2.1,0-3.6-0.4-4.6-1.2
			c-1-0.8-1.8-1.9-2.2-3.5C425,260.2,421.2,261.9,416.6,261.9z M415.3,251.4c0,1.5,0.3,2.5,1,3.2c0.7,0.6,1.8,1,3.4,1
			c2.7,0,4.6-0.7,5.8-2c1.2-1.3,1.8-2.9,1.8-4.7v-3.4c-1.4,0.1-2.5,0.2-3.3,0.3c-0.8,0.1-1.7,0.2-2.8,0.4c-1.1,0.2-1.9,0.4-2.5,0.7
			c-0.6,0.3-1.2,0.6-1.8,1c-0.6,0.4-1,0.9-1.2,1.5C415.4,249.8,415.3,250.6,415.3,251.4z"/>
		<path d="M476.2,261.2h-9.4v-22.4c0-3.7-1.9-5.5-5.6-5.5c-2,0-3.7,0.6-5.2,1.7c-1.5,1.1-2.2,2.3-2.2,3.6v22.6h-9.3v-34.5h7.7
			l0.8,3.9c3.2-3.1,7-4.6,11.4-4.6c7.8,0,11.8,3.4,11.8,10.3L476.2,261.2L476.2,261.2z"/>
		<path d="M511.5,230.1l-4.6,5.9c-2.1-2.1-4.6-3.1-7.7-3.1c-2.9,0-5,0.9-6.3,2.7c-1.3,1.8-2,4.6-2,8.2c0,3.7,0.7,6.5,2,8.4
			c1.3,1.9,3.5,2.8,6.5,2.8c3,0,5.6-1,7.8-3.1l4.1,6.1c-3.2,2.7-7.6,4.1-13.2,4.1c-11.1,0-16.6-6.1-16.6-18.2
			c0-5.5,1.4-9.9,4.2-13.1c2.8-3.2,7.1-4.8,12.8-4.8C503.9,225.9,508.2,227.3,511.5,230.1z"/>
		<path d="M523.6,261.9c-3.8,0-6.5-0.8-8.2-2.4c-1.6-1.6-2.4-4.1-2.4-7.4c0-1.7,0.3-3.3,1-4.5c0.6-1.3,1.5-2.3,2.6-3.2
			s2.5-1.5,4.4-2.1c1.9-0.6,3.8-1,5.8-1.3c2-0.3,4.5-0.5,7.5-0.8v-1.6c0-3.9-2.2-5.9-6.5-5.9c-3.6,0-6.3,1.5-8.1,4.5l-6.4-4.1
			c2.8-4.9,7.8-7.3,15-7.3c5,0,8.7,1,11.2,3c2.5,2,3.8,5.1,3.8,9.4v14.1c0,1.1,0.2,1.9,0.6,2.4c0.4,0.5,1,0.7,1.9,0.7l1-0.1v5.7
			l-0.3,0.1c-0.2,0-0.4,0.1-0.8,0.1c-0.3,0-0.7,0.1-1.1,0.1c-0.4,0-0.9,0.1-1.4,0.1c-0.5,0-1,0.1-1.5,0.1c-2.1,0-3.6-0.4-4.6-1.2
			c-1-0.8-1.8-1.9-2.2-3.5C532,260.2,528.2,261.9,523.6,261.9z M522.3,251.4c0,1.5,0.3,2.5,1,3.2c0.7,0.6,1.8,1,3.4,1
			c2.7,0,4.6-0.7,5.8-2c1.2-1.3,1.8-2.9,1.8-4.7v-3.4c-1.4,0.1-2.5,0.2-3.3,0.3c-0.8,0.1-1.7,0.2-2.8,0.4c-1.1,0.2-1.9,0.4-2.5,0.7
			c-0.6,0.3-1.2,0.6-1.8,1c-0.6,0.4-1,0.9-1.2,1.5C522.4,249.8,522.3,250.6,522.3,251.4z"/>
	</g>
</g>
</svg>
